<?xml version="1.0" encoding="UTF-8" standalone="no"?>
<!-- Created with Inkscape (http://www.inkscape.org/) -->

<svg
   width="50.08672mm"
   height="12.096749mm"
   viewBox="0 0 50.08672 12.096749"
   version="1.1"
   id="svg1"
   xmlns="http://www.w3.org/2000/svg"
   xmlns:svg="http://www.w3.org/2000/svg">
  <defs
     id="defs1">
    <clipPath
       clipPathUnits="userSpaceOnUse"
       id="clipPath571">
      <path
         d="M 0,1297.465 H 428.07 V 0 H 0 Z"
         transform="translate(-163.3872,-1183.7124)"
         id="path571" />
    </clipPath>
    <clipPath
       clipPathUnits="userSpaceOnUse"
       id="clipPath573">
      <path
         d="M 0,1297.465 H 428.07 V 0 H 0 Z"
         transform="translate(-177.853,-1191.479)"
         id="path573" />
    </clipPath>
    <clipPath
       clipPathUnits="userSpaceOnUse"
       id="clipPath575">
      <path
         d="M 0,1297.465 H 428.07 V 0 H 0 Z"
         transform="translate(-227.87451,-1183.7124)"
         id="path575" />
    </clipPath>
    <clipPath
       clipPathUnits="userSpaceOnUse"
       id="clipPath577">
      <path
         d="M 0,1297.465 H 428.07 V 0 H 0 Z"
         transform="translate(-248.19091,-1203.1733)"
         id="path577" />
    </clipPath>
    <clipPath
       clipPathUnits="userSpaceOnUse"
       id="clipPath579">
      <path
         d="M 0,1297.465 H 428.07 V 0 H 0 Z"
         transform="translate(-271.88131,-1176.9165)"
         id="path579" />
    </clipPath>
  </defs>
  <g
     id="layer1"
     transform="translate(-295.53958,-107.42083)">
    <path
       id="path570"
       d="m 0,0 c 0,-4.236 0,-7.723 0.203,-9.575 0.122,-1.281 0.366,-2.252 1.585,-2.429 0.569,-0.09 1.463,-0.178 1.828,-0.178 0.244,0 0.326,-0.131 0.326,-0.263 0,-0.22 -0.203,-0.353 -0.65,-0.353 -2.235,0 -4.795,0.133 -4.999,0.133 -0.203,0 -2.763,-0.133 -3.981,-0.133 -0.448,0 -0.652,0.089 -0.652,0.353 0,0.132 0.082,0.263 0.326,0.263 0.367,0 0.853,0.088 1.219,0.178 0.814,0.177 1.017,1.148 1.179,2.429 0.203,1.852 0.203,5.339 0.203,9.575 v 7.767 c 0,6.883 0,8.119 -0.082,9.532 -0.081,1.5 -0.486,2.251 -1.381,2.471 -0.447,0.131 -0.975,0.175 -1.26,0.175 -0.162,0 -0.325,0.09 -0.325,0.266 0,0.266 0.203,0.353 0.65,0.353 1.341,0 3.901,-0.132 4.104,-0.132 0.204,0 2.764,0.132 3.983,0.132 0.447,0 0.651,-0.087 0.651,-0.353 0,-0.176 -0.163,-0.266 -0.325,-0.266 -0.286,0 -0.53,-0.044 -1.017,-0.131 C 0.488,19.595 0.163,18.844 0.081,17.299 0,15.886 0,14.65 0,7.767 Z"
       style="fill:#4d4b49;fill-opacity:1;fill-rule:nonzero;stroke:none"
       transform="matrix(0.35277776,0,0,-0.35277776,297.81888,114.89341)"
       clip-path="url(#clipPath571)" />
    <path
       id="path572"
       d="m 0,0 c 0,6.884 0,8.119 -0.081,9.532 -0.081,1.5 -0.406,2.205 -1.747,2.516 -0.326,0.088 -1.017,0.131 -1.382,0.131 -0.163,0 -0.325,0.09 -0.325,0.264 0,0.267 0.203,0.355 0.65,0.355 1.828,0 4.267,-0.133 4.592,-0.133 0.893,0 3.251,0.133 5.12,0.133 5.079,0 6.908,-1.854 7.558,-2.516 0.894,-0.927 2.032,-2.913 2.032,-5.252 0,-6.266 -4.226,-10.503 -9.996,-10.503 -0.204,0 -0.65,0 -0.854,0.046 -0.203,0 -0.447,0.087 -0.447,0.307 0,0.354 0.244,0.396 1.097,0.396 3.942,0 7.03,3.134 7.03,7.195 0,1.455 -0.122,4.413 -2.275,6.798 -2.154,2.381 -4.633,2.204 -5.568,2.204 -0.69,0 -1.381,-0.087 -1.747,-0.263 C 3.414,11.121 3.332,10.813 3.332,10.371 V -7.768 c 0,-4.235 0,-7.721 0.203,-9.574 0.122,-1.281 0.366,-2.252 1.585,-2.429 0.569,-0.089 1.463,-0.176 1.829,-0.176 0.244,0 0.324,-0.132 0.324,-0.265 0,-0.221 -0.202,-0.351 -0.649,-0.351 -2.235,0 -4.796,0.13 -4.998,0.13 -0.123,0 -2.683,-0.13 -3.901,-0.13 -0.448,0 -0.651,0.086 -0.651,0.351 0,0.133 0.081,0.265 0.325,0.265 0.366,0 0.854,0.087 1.22,0.176 0.812,0.177 1.015,1.148 1.178,2.429 C 0,-15.489 0,-12.003 0,-7.768 Z"
       style="fill:#4d4b49;fill-opacity:1;fill-rule:nonzero;stroke:none"
       transform="matrix(0.35277776,0,0,-0.35277776,302.92209,112.15352)"
       clip-path="url(#clipPath573)" />
    <path
       id="path574"
       d="m 0,0 c 0,-4.236 0,-7.723 0.203,-9.575 0.122,-1.281 0.366,-2.252 1.585,-2.429 0.569,-0.09 1.462,-0.178 1.829,-0.178 0.243,0 0.325,-0.131 0.325,-0.263 0,-0.22 -0.205,-0.353 -0.651,-0.353 -2.234,0 -4.794,0.133 -4.998,0.133 -0.203,0 -2.764,-0.133 -3.981,-0.133 -0.448,0 -0.651,0.089 -0.651,0.353 0,0.132 0.081,0.263 0.325,0.263 0.367,0 0.853,0.088 1.219,0.178 0.814,0.177 1.016,1.148 1.178,2.429 0.204,1.852 0.204,5.339 0.204,9.575 v 4.634 c 0,0.176 -0.122,0.264 -0.244,0.264 h -17.229 c -0.122,0 -0.244,-0.045 -0.244,-0.264 V 0 c 0,-4.236 0,-7.723 0.202,-9.575 0.123,-1.281 0.366,-2.252 1.586,-2.429 0.569,-0.09 1.463,-0.178 1.828,-0.178 0.244,0 0.326,-0.131 0.326,-0.263 0,-0.22 -0.203,-0.353 -0.651,-0.353 -2.235,0 -4.795,0.133 -4.998,0.133 -0.203,0 -2.763,-0.133 -3.981,-0.133 -0.449,0 -0.652,0.089 -0.652,0.353 0,0.132 0.082,0.263 0.326,0.263 0.365,0 0.853,0.088 1.219,0.178 0.812,0.177 1.015,1.148 1.178,2.429 0.203,1.852 0.203,5.339 0.203,9.575 v 7.767 c 0,6.883 0,8.119 -0.081,9.532 -0.081,1.5 -0.406,2.206 -1.747,2.515 -0.326,0.087 -1.016,0.131 -1.382,0.131 -0.163,0 -0.325,0.09 -0.325,0.266 0,0.266 0.203,0.353 0.65,0.353 1.829,0 4.389,-0.132 4.592,-0.132 0.203,0 2.763,0.132 3.983,0.132 0.446,0 0.649,-0.087 0.649,-0.353 0,-0.176 -0.162,-0.266 -0.324,-0.266 -0.284,0 -0.529,-0.044 -1.016,-0.131 -1.098,-0.219 -1.423,-0.97 -1.503,-2.515 C -21.13,15.886 -21.13,14.65 -21.13,7.767 V 6.84 c 0,-0.221 0.122,-0.265 0.244,-0.265 h 17.229 c 0.122,0 0.244,0.044 0.244,0.265 v 0.927 c 0,6.883 0,8.119 -0.082,9.532 -0.081,1.5 -0.405,2.206 -1.747,2.515 -0.324,0.087 -1.016,0.131 -1.382,0.131 -0.162,0 -0.324,0.09 -0.324,0.266 0,0.266 0.203,0.353 0.65,0.353 1.827,0 4.388,-0.132 4.591,-0.132 0.204,0 2.764,0.132 3.982,0.132 0.449,0 0.65,-0.087 0.65,-0.353 0,-0.176 -0.161,-0.266 -0.323,-0.266 -0.286,0 -0.53,-0.044 -1.017,-0.131 C 0.487,19.595 0.163,18.844 0.081,17.299 0,15.886 0,14.65 0,7.767 Z"
       style="fill:#4d4b49;fill-opacity:1;fill-rule:nonzero;stroke:none"
       transform="matrix(0.35277776,0,0,-0.35277776,320.56857,114.89341)"
       clip-path="url(#clipPath575)" />
    <path
       id="path576"
       d="m 0,0 c 0.488,1.456 0.651,1.721 0.896,1.721 0.242,0 0.404,-0.22 0.892,-1.587 0.61,-1.679 6.99,-19.905 9.469,-26.612 1.463,-3.928 2.64,-4.634 3.494,-4.899 0.609,-0.22 1.219,-0.266 1.626,-0.266 0.243,0 0.406,-0.044 0.406,-0.264 0,-0.263 -0.367,-0.351 -0.813,-0.351 -0.61,0 -3.577,0 -6.38,0.088 -0.771,0.043 -1.22,0.043 -1.22,0.307 0,0.176 0.123,0.266 0.286,0.309 0.244,0.09 0.487,0.486 0.244,1.193 l -3.779,10.856 c -0.082,0.176 -0.163,0.264 -0.366,0.264 h -8.737 c -0.204,0 -0.325,-0.132 -0.406,-0.353 l -2.439,-7.81 c -0.364,-1.104 -0.568,-2.163 -0.568,-2.957 0,-0.882 0.853,-1.282 1.544,-1.282 h 0.406 c 0.286,0 0.406,-0.086 0.406,-0.264 0,-0.263 -0.244,-0.351 -0.608,-0.351 -0.976,0 -2.724,0.131 -3.171,0.131 -0.447,0 -2.681,-0.131 -4.591,-0.131 -0.528,0 -0.771,0.088 -0.771,0.351 0,0.178 0.161,0.264 0.367,0.264 0.282,0 0.851,0.046 1.177,0.089 1.868,0.266 2.681,1.943 3.412,4.15 z m 4.227,-17.652 c 0.202,0 0.202,0.132 0.162,0.308 L 0.53,-5.427 c -0.205,0.661 -0.408,0.661 -0.61,0 l -3.576,-11.917 c -0.083,-0.22 0,-0.308 0.12,-0.308 z"
       style="fill:#4d4b49;fill-opacity:1;fill-rule:nonzero;stroke:none"
       transform="matrix(0.35277776,0,0,-0.35277776,327.73574,108.02803)"
       clip-path="url(#clipPath577)" />
    <path
       id="path578"
       d="m 0,0 c 0.081,-3.619 0.487,-4.767 1.585,-5.12 0.772,-0.22 1.666,-0.266 2.032,-0.266 0.203,0 0.325,-0.087 0.325,-0.264 0,-0.263 -0.244,-0.351 -0.732,-0.351 -2.316,0 -3.942,0.131 -4.308,0.131 -0.365,0 -2.071,-0.131 -3.9,-0.131 -0.406,0 -0.649,0.044 -0.649,0.351 0,0.177 0.12,0.264 0.324,0.264 0.325,0 1.056,0.046 1.666,0.266 1.016,0.308 1.219,1.589 1.219,5.604 l 0.041,25.287 c 0,1.722 0.122,2.207 0.446,2.207 0.326,0 1.017,-0.971 1.423,-1.413 C 0.081,25.815 6.135,18.71 12.393,11.43 16.418,6.752 20.846,1.365 22.146,-0.091 l -0.447,22.42 c -0.04,2.868 -0.324,3.839 -1.585,4.192 -0.731,0.176 -1.666,0.22 -1.991,0.22 -0.284,0 -0.325,0.134 -0.325,0.311 0,0.264 0.325,0.307 0.813,0.307 1.829,0 3.779,-0.131 4.226,-0.131 0.447,0 1.788,0.131 3.454,0.131 0.447,0 0.732,-0.043 0.732,-0.307 0,-0.177 -0.163,-0.311 -0.447,-0.311 -0.204,0 -0.488,0 -0.976,-0.131 -1.341,-0.309 -1.503,-1.279 -1.503,-3.928 L 24.016,-3.179 c 0,-2.912 -0.082,-3.133 -0.366,-3.133 -0.326,0 -0.813,0.486 -2.966,2.824 C 20.237,-3.044 14.385,3.441 10.078,8.473 5.364,13.988 0.772,19.55 -0.528,21.138 Z"
       style="fill:#4d4b49;fill-opacity:1;fill-rule:nonzero;stroke:none"
       transform="matrix(0.35277776,0,0,-0.35277776,336.09319,117.29085)"
       clip-path="url(#clipPath579)" />
  </g>
</svg>
