<svg xmlns="http://www.w3.org/2000/svg" xml:space="preserve" width="210.318" height="66.066" viewBox="0 0 55.647 17.48"><defs><clipPath id="a" clipPathUnits="userSpaceOnUse"><path d="M-163.387 113.753h428.07v-1297.465h-428.07Z"/></clipPath><clipPath id="b" clipPathUnits="userSpaceOnUse"><path d="M-177.853 105.986h428.07v-1297.465h-428.07Z"/></clipPath><clipPath id="c" clipPathUnits="userSpaceOnUse"><path d="M-227.875 113.753h428.07v-1297.465h-428.07Z"/></clipPath><clipPath id="d" clipPathUnits="userSpaceOnUse"><path d="M-248.19 94.292h428.07v-1297.465h-428.07Z"/></clipPath><clipPath id="e" clipPathUnits="userSpaceOnUse"><path d="M-271.881 120.548h428.07v-1297.465h-428.07Z"/></clipPath></defs><path d="M162.517 130.377h55.647v17.48h-55.647z" style="fill:#ca4d37;stroke-width:.264583;stroke-linecap:square;fill-opacity:1" transform="translate(-162.517 -130.377)"/><g style="fill:#fff;fill-opacity:1"><path d="M0 0c0-4.236 0-7.723.203-9.575.122-1.281.366-2.252 1.585-2.429.569-.09 1.463-.178 1.828-.178.244 0 .326-.131.326-.263 0-.22-.203-.353-.65-.353-2.235 0-4.795.133-4.999.133-.203 0-2.763-.133-3.981-.133-.448 0-.652.089-.652.353 0 .132.082.263.326.263.367 0 .853.088 1.219.178.814.177 1.017 1.148 1.179 2.429.203 1.852.203 5.339.203 9.575v7.767c0 6.883 0 8.119-.082 9.532-.081 1.5-.486 2.251-1.381 2.471a4.984 4.984 0 0 1-1.26.175c-.162 0-.325.09-.325.266 0 .266.203.353.65.353 1.341 0 3.901-.132 4.104-.132.204 0 2.764.132 3.983.132.447 0 .651-.087.651-.353 0-.176-.163-.266-.325-.266-.286 0-.53-.044-1.017-.131-1.097-.219-1.422-.97-1.504-2.515C0 15.886 0 14.65 0 7.767Z" clip-path="url(#a)" style="fill:#fff;fill-opacity:1;fill-rule:nonzero;stroke:none" transform="matrix(.35278 0 0 -.35278 5.023 10.187)"/><path d="M0 0c0 6.884 0 8.119-.081 9.532-.081 1.5-.406 2.205-1.747 2.516-.326.088-1.017.131-1.382.131-.163 0-.325.09-.325.264 0 .267.203.355.65.355 1.828 0 4.267-.133 4.592-.133.893 0 3.251.133 5.12.133 5.079 0 6.908-1.854 7.558-2.516.894-.927 2.032-2.913 2.032-5.252 0-6.266-4.226-10.503-9.996-10.503-.204 0-.65 0-.854.046-.203 0-.447.087-.447.307 0 .354.244.396 1.097.396 3.942 0 7.03 3.134 7.03 7.195 0 1.455-.122 4.413-2.275 6.798-2.154 2.381-4.633 2.204-5.568 2.204-.69 0-1.381-.087-1.747-.263-.243-.089-.325-.397-.325-.839V-7.768c0-4.235 0-7.721.203-9.574.122-1.281.366-2.252 1.585-2.429.569-.089 1.463-.176 1.829-.176.244 0 .324-.132.324-.265 0-.221-.202-.351-.649-.351-2.235 0-4.796.13-4.998.13-.123 0-2.683-.13-3.901-.13-.448 0-.651.086-.651.351 0 .133.081.265.325.265.366 0 .854.087 1.22.176.812.177 1.015 1.148 1.178 2.429C0-15.489 0-12.003 0-7.768Z" clip-path="url(#b)" style="fill:#fff;fill-opacity:1;fill-rule:nonzero;stroke:none" transform="matrix(.35278 0 0 -.35278 10.126 7.447)"/><path d="M0 0c0-4.236 0-7.723.203-9.575.122-1.281.366-2.252 1.585-2.429.569-.09 1.462-.178 1.829-.178.243 0 .325-.131.325-.263 0-.22-.205-.353-.651-.353-2.234 0-4.794.133-4.998.133-.203 0-2.764-.133-3.981-.133-.448 0-.651.089-.651.353 0 .132.081.263.325.263.367 0 .853.088 1.219.178.814.177 1.016 1.148 1.178 2.429.204 1.852.204 5.339.204 9.575v4.634c0 .176-.122.264-.244.264h-17.229c-.122 0-.244-.045-.244-.264V0c0-4.236 0-7.723.202-9.575.123-1.281.366-2.252 1.586-2.429.569-.09 1.463-.178 1.828-.178.244 0 .326-.131.326-.263 0-.22-.203-.353-.651-.353-2.235 0-4.795.133-4.998.133-.203 0-2.763-.133-3.981-.133-.449 0-.652.089-.652.353 0 .132.082.263.326.263.365 0 .853.088 1.219.178.812.177 1.015 1.148 1.178 2.429.203 1.852.203 5.339.203 9.575v7.767c0 6.883 0 8.119-.081 9.532-.081 1.5-.406 2.206-1.747 2.515-.326.087-1.016.131-1.382.131-.163 0-.325.09-.325.266 0 .266.203.353.65.353 1.829 0 4.389-.132 4.592-.132.203 0 2.763.132 3.983.132.446 0 .649-.087.649-.353 0-.176-.162-.266-.324-.266-.284 0-.529-.044-1.016-.131-1.098-.219-1.423-.97-1.503-2.515-.082-1.413-.082-2.649-.082-9.532V6.84c0-.221.122-.265.244-.265h17.229c.122 0 .244.044.244.265v.927c0 6.883 0 8.119-.082 9.532-.081 1.5-.405 2.206-1.747 2.515-.324.087-1.016.131-1.382.131-.162 0-.324.09-.324.266 0 .266.203.353.65.353 1.827 0 4.388-.132 4.591-.132.204 0 2.764.132 3.982.132.449 0 .65-.087.65-.353 0-.176-.161-.266-.323-.266-.286 0-.53-.044-1.017-.131-1.098-.219-1.422-.97-1.504-2.515C0 15.886 0 14.65 0 7.767Z" clip-path="url(#c)" style="fill:#fff;fill-opacity:1;fill-rule:nonzero;stroke:none" transform="matrix(.35278 0 0 -.35278 27.773 10.187)"/><path d="M0 0c.488 1.456.651 1.721.896 1.721.242 0 .404-.22.892-1.587.61-1.679 6.99-19.905 9.469-26.612 1.463-3.928 2.64-4.634 3.494-4.899a4.884 4.884 0 0 1 1.626-.266c.243 0 .406-.044.406-.264 0-.263-.367-.351-.813-.351-.61 0-3.577 0-6.38.088-.771.043-1.22.043-1.22.307 0 .176.123.266.286.309.244.09.487.486.244 1.193L5.121-19.505c-.082.176-.163.264-.366.264h-8.737c-.204 0-.325-.132-.406-.353l-2.439-7.81c-.364-1.104-.568-2.163-.568-2.957 0-.882.853-1.282 1.544-1.282h.406c.286 0 .406-.086.406-.264 0-.263-.244-.351-.608-.351-.976 0-2.724.131-3.171.131-.447 0-2.681-.131-4.591-.131-.528 0-.771.088-.771.351 0 .178.161.264.367.264.282 0 .851.046 1.177.089 1.868.266 2.681 1.943 3.412 4.15zm4.227-17.652c.202 0 .202.132.162.308L.53-5.427c-.205.661-.408.661-.61 0l-3.576-11.917c-.083-.22 0-.308.12-.308z" clip-path="url(#d)" style="fill:#fff;fill-opacity:1;fill-rule:nonzero;stroke:none" transform="matrix(.35278 0 0 -.35278 34.94 3.321)"/><path d="M0 0c.081-3.619.487-4.767 1.585-5.12.772-.22 1.666-.266 2.032-.266.203 0 .325-.087.325-.264 0-.263-.244-.351-.732-.351-2.316 0-3.942.131-4.308.131-.365 0-2.071-.131-3.9-.131-.406 0-.649.044-.649.351 0 .177.12.264.324.264.325 0 1.056.046 1.666.266 1.016.308 1.219 1.589 1.219 5.604l.041 25.287c0 1.722.122 2.207.446 2.207.326 0 1.017-.971 1.423-1.413.609-.75 6.663-7.855 12.921-15.135 4.025-4.678 8.453-10.065 9.753-11.521l-.447 22.42c-.04 2.868-.324 3.839-1.585 4.192-.731.176-1.666.22-1.991.22-.284 0-.325.134-.325.311 0 .264.325.307.813.307 1.829 0 3.779-.131 4.226-.131.447 0 1.788.131 3.454.131.447 0 .732-.043.732-.307 0-.177-.163-.311-.447-.311-.204 0-.488 0-.976-.131-1.341-.309-1.503-1.279-1.503-3.928l-.081-25.861c0-2.912-.082-3.133-.366-3.133-.326 0-.813.486-2.966 2.824-.447.444-6.299 6.929-10.606 11.961A893.172 893.172 0 0 0-.528 21.138Z" clip-path="url(#e)" style="fill:#fff;fill-opacity:1;fill-rule:nonzero;stroke:none" transform="matrix(.35278 0 0 -.35278 43.297 12.584)"/></g></svg>